<mxfile host="app.diagrams.net" modified="2023-05-29T15:36:17.282Z" agent="Mozilla/5.0 (X11; Linux x86_64; rv:108.0) Gecko/20100101 Firefox/108.0" etag="NPlPD5mhhjtZImVLMHaQ" version="21.3.5" type="device">
  <diagram name="Page-1" id="xS5e-kVt671PvOTFcU_v">
    <mxGraphModel dx="954" dy="547" grid="1" gridSize="10" guides="1" tooltips="1" connect="1" arrows="1" fold="1" page="1" pageScale="1" pageWidth="827" pageHeight="1169" math="0" shadow="0">
      <root>
        <mxCell id="0" />
        <mxCell id="1" parent="0" />
        <mxCell id="z1F8QRphNZERDpoR4OeI-1" value="" style="shape=umlLifeline;perimeter=lifelinePerimeter;whiteSpace=wrap;html=1;container=1;dropTarget=0;collapsible=0;recursiveResize=0;outlineConnect=0;portConstraint=eastwest;newEdgeStyle={&quot;edgeStyle&quot;:&quot;elbowEdgeStyle&quot;,&quot;elbow&quot;:&quot;vertical&quot;,&quot;curved&quot;:0,&quot;rounded&quot;:0};participant=umlActor;" parent="1" vertex="1">
          <mxGeometry x="120" y="70" width="20" height="770" as="geometry" />
        </mxCell>
        <mxCell id="z1F8QRphNZERDpoR4OeI-2" value="Sistema" style="shape=umlLifeline;perimeter=lifelinePerimeter;whiteSpace=wrap;html=1;container=1;dropTarget=0;collapsible=0;recursiveResize=0;outlineConnect=0;portConstraint=eastwest;newEdgeStyle={&quot;edgeStyle&quot;:&quot;elbowEdgeStyle&quot;,&quot;elbow&quot;:&quot;vertical&quot;,&quot;curved&quot;:0,&quot;rounded&quot;:0};" parent="1" vertex="1">
          <mxGeometry x="540" y="80" width="100" height="760" as="geometry" />
        </mxCell>
        <mxCell id="z1F8QRphNZERDpoR4OeI-3" value="ALT" style="shape=umlFrame;whiteSpace=wrap;html=1;pointerEvents=0;fillColor=#fff2cc;strokeColor=#d6b656;" parent="1" vertex="1">
          <mxGeometry x="40" y="150" width="640" height="690" as="geometry" />
        </mxCell>
        <mxCell id="4zyj_bGbnbERVUoL-T8D-9" value="" style="endArrow=none;endFill=0;endSize=12;html=1;rounded=0;strokeColor=#0000FF;" parent="1" edge="1">
          <mxGeometry width="160" relative="1" as="geometry">
            <mxPoint x="40" y="400" as="sourcePoint" />
            <mxPoint x="680" y="400" as="targetPoint" />
          </mxGeometry>
        </mxCell>
        <mxCell id="4zyj_bGbnbERVUoL-T8D-10" value="" style="group" parent="1" vertex="1" connectable="0">
          <mxGeometry x="80" y="190" width="550" height="410" as="geometry" />
        </mxCell>
        <mxCell id="4zyj_bGbnbERVUoL-T8D-3" value="LOOP" style="shape=umlFrame;whiteSpace=wrap;html=1;pointerEvents=0;fillColor=#dae8fc;strokeColor=#6c8ebf;swimlaneFillColor=none;gradientColor=none;shadow=0;" parent="4zyj_bGbnbERVUoL-T8D-10" vertex="1">
          <mxGeometry width="550" height="180" as="geometry" />
        </mxCell>
        <mxCell id="4zyj_bGbnbERVUoL-T8D-4" value="" style="endArrow=none;endFill=0;endSize=12;html=1;rounded=0;" parent="4zyj_bGbnbERVUoL-T8D-10" source="z1F8QRphNZERDpoR4OeI-1" target="z1F8QRphNZERDpoR4OeI-2" edge="1">
          <mxGeometry width="160" relative="1" as="geometry">
            <mxPoint x="270" y="260" as="sourcePoint" />
            <mxPoint x="430" y="260" as="targetPoint" />
            <Array as="points">
              <mxPoint x="340" y="110" />
            </Array>
          </mxGeometry>
        </mxCell>
        <mxCell id="4zyj_bGbnbERVUoL-T8D-5" value="aggiuntaServizio(Tipo, Data, Luogo, NumPersone, Menù, Evento)" style="html=1;verticalAlign=bottom;endArrow=block;edgeStyle=elbowEdgeStyle;elbow=vertical;curved=0;rounded=0;" parent="4zyj_bGbnbERVUoL-T8D-10" source="z1F8QRphNZERDpoR4OeI-1" target="z1F8QRphNZERDpoR4OeI-2" edge="1">
          <mxGeometry width="80" relative="1" as="geometry">
            <mxPoint x="-290" y="268.14141414141415" as="sourcePoint" />
            <mxPoint x="680" y="268.14141414141415" as="targetPoint" />
            <Array as="points">
              <mxPoint x="340" y="40" />
              <mxPoint x="140" y="268.1818181818182" />
              <mxPoint x="300" y="246.16161616161617" />
              <mxPoint x="231.14" y="290.2020202020202" />
            </Array>
          </mxGeometry>
        </mxCell>
        <mxCell id="4zyj_bGbnbERVUoL-T8D-6" value="ALT" style="shape=umlFrame;whiteSpace=wrap;html=1;pointerEvents=0;fillColor=#f8cecc;strokeColor=#b85450;" parent="4zyj_bGbnbERVUoL-T8D-10" vertex="1">
          <mxGeometry x="20" y="50" width="510" height="110" as="geometry" />
        </mxCell>
        <mxCell id="4zyj_bGbnbERVUoL-T8D-7" value="operazione completata" style="html=1;verticalAlign=bottom;endArrow=none;edgeStyle=elbowEdgeStyle;elbow=vertical;curved=0;rounded=0;endFill=0;startArrow=block;startFill=1;" parent="4zyj_bGbnbERVUoL-T8D-10" edge="1">
          <mxGeometry width="80" relative="1" as="geometry">
            <mxPoint x="50" y="89.5" as="sourcePoint" />
            <mxPoint x="510" y="89.5" as="targetPoint" />
            <Array as="points">
              <mxPoint x="240" y="89.5" />
            </Array>
          </mxGeometry>
        </mxCell>
        <mxCell id="4zyj_bGbnbERVUoL-T8D-8" value="l&#39;evento associato è in corso" style="html=1;verticalAlign=bottom;endArrow=none;edgeStyle=elbowEdgeStyle;elbow=vertical;curved=0;rounded=0;endFill=0;startArrow=block;startFill=1;" parent="4zyj_bGbnbERVUoL-T8D-10" edge="1">
          <mxGeometry width="80" relative="1" as="geometry">
            <mxPoint x="50" y="140" as="sourcePoint" />
            <mxPoint x="510" y="140" as="targetPoint" />
            <Array as="points">
              <mxPoint x="240" y="140" />
            </Array>
          </mxGeometry>
        </mxCell>
        <mxCell id="4zyj_bGbnbERVUoL-T8D-2" value="" style="group" parent="4zyj_bGbnbERVUoL-T8D-10" vertex="1" connectable="0">
          <mxGeometry x="20" y="250" width="520" height="160" as="geometry" />
        </mxCell>
        <mxCell id="z1F8QRphNZERDpoR4OeI-4" value="modificaServizio(Servizio, Tipo?, Data?, Luogo?, NumPartecipanti?, Menù?, Evento?)" style="html=1;verticalAlign=bottom;endArrow=block;edgeStyle=elbowEdgeStyle;elbow=vertical;curved=0;rounded=0;" parent="4zyj_bGbnbERVUoL-T8D-2" source="z1F8QRphNZERDpoR4OeI-1" target="z1F8QRphNZERDpoR4OeI-2" edge="1">
          <mxGeometry width="80" relative="1" as="geometry">
            <mxPoint x="-310" y="103" as="sourcePoint" />
            <mxPoint x="660" y="103" as="targetPoint" />
            <Array as="points">
              <mxPoint x="260" />
            </Array>
          </mxGeometry>
        </mxCell>
        <mxCell id="z1F8QRphNZERDpoR4OeI-7" value="ALT" style="shape=umlFrame;whiteSpace=wrap;html=1;pointerEvents=0;fillColor=#f8cecc;strokeColor=#b85450;" parent="4zyj_bGbnbERVUoL-T8D-2" vertex="1">
          <mxGeometry y="20" width="520" height="140" as="geometry" />
        </mxCell>
        <mxCell id="z1F8QRphNZERDpoR4OeI-8" value="" style="endArrow=none;endFill=0;endSize=12;html=1;rounded=0;fillColor=#0050ef;strokeColor=#001DBC;" parent="4zyj_bGbnbERVUoL-T8D-2" source="z1F8QRphNZERDpoR4OeI-1" target="z1F8QRphNZERDpoR4OeI-2" edge="1">
          <mxGeometry width="160" relative="1" as="geometry">
            <mxPoint x="190" y="110" as="sourcePoint" />
            <mxPoint x="350" y="110" as="targetPoint" />
            <Array as="points">
              <mxPoint x="270" y="100" />
            </Array>
          </mxGeometry>
        </mxCell>
        <mxCell id="4zyj_bGbnbERVUoL-T8D-16" value="l&#39;evento associato è in corso" style="html=1;verticalAlign=bottom;endArrow=none;edgeStyle=elbowEdgeStyle;elbow=vertical;curved=0;rounded=0;endFill=0;startArrow=block;startFill=1;" parent="4zyj_bGbnbERVUoL-T8D-2" edge="1">
          <mxGeometry width="80" relative="1" as="geometry">
            <mxPoint x="30" y="130" as="sourcePoint" />
            <mxPoint x="490" y="130" as="targetPoint" />
            <Array as="points">
              <mxPoint x="220" y="130" />
            </Array>
          </mxGeometry>
        </mxCell>
        <mxCell id="4zyj_bGbnbERVUoL-T8D-11" value="" style="endArrow=none;endFill=0;endSize=12;html=1;rounded=0;strokeColor=#0000FF;" parent="1" edge="1">
          <mxGeometry width="160" relative="1" as="geometry">
            <mxPoint x="40" y="620" as="sourcePoint" />
            <mxPoint x="680" y="620" as="targetPoint" />
          </mxGeometry>
        </mxCell>
        <mxCell id="4zyj_bGbnbERVUoL-T8D-15" value="" style="group" parent="1" vertex="1" connectable="0">
          <mxGeometry x="130" y="670" height="20" as="geometry" />
        </mxCell>
        <mxCell id="4zyj_bGbnbERVUoL-T8D-12" value="eliminaServizio(Servizio, PropagaModifica?)" style="html=1;verticalAlign=bottom;endArrow=block;edgeStyle=elbowEdgeStyle;elbow=vertical;curved=0;rounded=0;" parent="4zyj_bGbnbERVUoL-T8D-15" target="z1F8QRphNZERDpoR4OeI-2" edge="1">
          <mxGeometry width="80" relative="1" as="geometry">
            <mxPoint as="sourcePoint" />
            <mxPoint x="80" as="targetPoint" />
          </mxGeometry>
        </mxCell>
        <mxCell id="4zyj_bGbnbERVUoL-T8D-13" value="operazione completata" style="html=1;verticalAlign=bottom;endArrow=none;edgeStyle=elbowEdgeStyle;elbow=vertical;curved=0;rounded=0;endFill=0;startArrow=classic;startFill=1;" parent="4zyj_bGbnbERVUoL-T8D-15" target="z1F8QRphNZERDpoR4OeI-2" edge="1">
          <mxGeometry width="80" relative="1" as="geometry">
            <mxPoint y="20" as="sourcePoint" />
            <mxPoint x="80" y="20" as="targetPoint" />
          </mxGeometry>
        </mxCell>
        <mxCell id="z1F8QRphNZERDpoR4OeI-5" value="modifica completata" style="html=1;verticalAlign=bottom;endArrow=none;edgeStyle=elbowEdgeStyle;elbow=vertical;curved=0;rounded=0;endFill=0;startArrow=block;startFill=1;" parent="1" source="z1F8QRphNZERDpoR4OeI-1" target="z1F8QRphNZERDpoR4OeI-2" edge="1">
          <mxGeometry width="80" relative="1" as="geometry">
            <mxPoint x="130" y="500" as="sourcePoint" />
            <mxPoint x="590" y="520" as="targetPoint" />
            <Array as="points">
              <mxPoint x="480" y="510" />
              <mxPoint x="320" y="500" />
            </Array>
          </mxGeometry>
        </mxCell>
        <mxCell id="bs-JbXTgn5UyTioTZlNH-1" value="" style="endArrow=none;endFill=0;endSize=12;html=1;rounded=0;strokeColor=#0000FF;" edge="1" parent="1">
          <mxGeometry width="160" relative="1" as="geometry">
            <mxPoint x="40" y="739" as="sourcePoint" />
            <mxPoint x="680" y="739" as="targetPoint" />
          </mxGeometry>
        </mxCell>
        <mxCell id="bs-JbXTgn5UyTioTZlNH-3" value="recuperoElencoServizi(Evento, propagaModifica?)" style="html=1;verticalAlign=bottom;endArrow=block;edgeStyle=elbowEdgeStyle;elbow=vertical;curved=0;rounded=0;" edge="1" parent="1" target="z1F8QRphNZERDpoR4OeI-2">
          <mxGeometry width="80" relative="1" as="geometry">
            <mxPoint x="130" y="780" as="sourcePoint" />
            <mxPoint x="200" y="780" as="targetPoint" />
          </mxGeometry>
        </mxCell>
        <mxCell id="bs-JbXTgn5UyTioTZlNH-4" value="elenco dei servizi dell&#39;evento indicato" style="html=1;verticalAlign=bottom;endArrow=block;edgeStyle=elbowEdgeStyle;elbow=vertical;curved=0;rounded=0;" edge="1" parent="1" source="z1F8QRphNZERDpoR4OeI-2" target="z1F8QRphNZERDpoR4OeI-1">
          <mxGeometry width="80" relative="1" as="geometry">
            <mxPoint x="370" y="690" as="sourcePoint" />
            <mxPoint x="450" y="690" as="targetPoint" />
            <Array as="points">
              <mxPoint x="510" y="820" />
            </Array>
          </mxGeometry>
        </mxCell>
      </root>
    </mxGraphModel>
  </diagram>
</mxfile>
